<?xml version='1.0' encoding='utf-8'?>
<svg xmlns="http://www.w3.org/2000/svg" width="91.44mm" height="91.44mm" version="1.1" style="shape-rendering:geometricPrecision; text-rendering:geometricPrecision; image-rendering:optimizeQuality; fill-rule:evenodd; clip-rule:evenodd" viewBox="0 0 177.1 177.1"> <defs> <style type="text/css">  .fil0 {fill:#F0F0F0} .fil1 {fill:#011627;fill-rule:nonzero}  </style> </defs> <g id="Camada_x0020_1"> <metadata id="CorelCorpID_0Corel-Layer"/> <polygon class="fil0" points="177.1,0 -0,0 -0,177.1 177.1,177.1 "/> <path class="fil1" d="M119.57 92.79l-29.86 29.86c-0.64,0.64 -1.68,0.64 -2.32,0l-29.86 -29.86c-4.43,-4.43 -6.64,-10.26 -6.64,-16.09 0,-5.83 2.21,-11.66 6.64,-16.09 4.43,-4.42 10.26,-6.63 16.09,-6.63 5.33,0 10.67,1.85 14.93,5.55 4.26,-3.7 9.59,-5.55 14.93,-5.55 5.83,0 11.66,2.21 16.09,6.63 4.43,4.43 6.64,10.26 6.64,16.09 0,5.83 -2.21,11.66 -6.64,16.09zm-31.02 26.38l28.7 -28.7c3.79,-3.79 5.68,-8.78 5.68,-13.77 0,-4.99 -1.89,-9.98 -5.68,-13.77 -3.78,-3.79 -8.78,-5.68 -13.77,-5.68 -4.99,0 -9.98,1.89 -13.77,5.68 -0.64,0.64 -1.68,0.64 -2.32,0 -3.78,-3.79 -8.78,-5.68 -13.77,-5.68 -4.99,0 -9.98,1.89 -13.77,5.68 -3.78,3.79 -5.68,8.78 -5.68,13.77 0,4.99 1.89,9.98 5.68,13.77l28.7 28.7z"/> </g> </svg>